<mxfile host="app.diagrams.net" modified="2023-05-12T05:36:43.459Z" agent="Mozilla/5.0 (Macintosh; Intel Mac OS X 10_15_7) AppleWebKit/537.36 (KHTML, like Gecko) Chrome/112.0.0.0 Safari/537.36" etag="fhHiGQbDLTDwTECscieh" version="21.2.9" type="github">
  <diagram name="第 1 页" id="vVUvNxroKoHHQna2OpXY">
    <mxGraphModel dx="954" dy="1784" grid="1" gridSize="10" guides="1" tooltips="1" connect="1" arrows="1" fold="1" page="1" pageScale="1" pageWidth="827" pageHeight="1169" math="0" shadow="0">
      <root>
        <mxCell id="0" />
        <mxCell id="1" parent="0" />
        <mxCell id="R6RrCSv3wf-1cfHW28T0-14" style="rounded=0;orthogonalLoop=1;jettySize=auto;html=1;exitX=1;exitY=0.3333333333333333;exitDx=0;exitDy=0;exitPerimeter=0;entryX=0;entryY=0.5;entryDx=0;entryDy=0;" edge="1" parent="1" source="R6RrCSv3wf-1cfHW28T0-1" target="R6RrCSv3wf-1cfHW28T0-9">
          <mxGeometry relative="1" as="geometry" />
        </mxCell>
        <mxCell id="R6RrCSv3wf-1cfHW28T0-16" style="rounded=0;orthogonalLoop=1;jettySize=auto;html=1;exitX=1;exitY=0.3333333333333333;exitDx=0;exitDy=0;exitPerimeter=0;entryX=0;entryY=0.5;entryDx=0;entryDy=0;" edge="1" parent="1" source="R6RrCSv3wf-1cfHW28T0-1" target="R6RrCSv3wf-1cfHW28T0-10">
          <mxGeometry relative="1" as="geometry" />
        </mxCell>
        <mxCell id="R6RrCSv3wf-1cfHW28T0-17" style="rounded=0;orthogonalLoop=1;jettySize=auto;html=1;exitX=1;exitY=0.3333333333333333;exitDx=0;exitDy=0;exitPerimeter=0;entryX=0;entryY=0.5;entryDx=0;entryDy=0;" edge="1" parent="1" source="R6RrCSv3wf-1cfHW28T0-1" target="R6RrCSv3wf-1cfHW28T0-11">
          <mxGeometry relative="1" as="geometry" />
        </mxCell>
        <mxCell id="R6RrCSv3wf-1cfHW28T0-18" style="rounded=0;orthogonalLoop=1;jettySize=auto;html=1;entryX=0;entryY=0.5;entryDx=0;entryDy=0;exitX=1;exitY=0.3333333333333333;exitDx=0;exitDy=0;exitPerimeter=0;" edge="1" parent="1" source="R6RrCSv3wf-1cfHW28T0-1" target="R6RrCSv3wf-1cfHW28T0-12">
          <mxGeometry relative="1" as="geometry" />
        </mxCell>
        <mxCell id="R6RrCSv3wf-1cfHW28T0-20" style="rounded=0;orthogonalLoop=1;jettySize=auto;html=1;exitX=1;exitY=0.3333333333333333;exitDx=0;exitDy=0;exitPerimeter=0;entryX=0;entryY=0.5;entryDx=0;entryDy=0;" edge="1" parent="1" source="R6RrCSv3wf-1cfHW28T0-1" target="R6RrCSv3wf-1cfHW28T0-13">
          <mxGeometry relative="1" as="geometry" />
        </mxCell>
        <mxCell id="R6RrCSv3wf-1cfHW28T0-1" value="买家" style="shape=umlActor;verticalLabelPosition=bottom;verticalAlign=top;html=1;outlineConnect=0;" vertex="1" parent="1">
          <mxGeometry x="80" y="210" width="30" height="60" as="geometry" />
        </mxCell>
        <mxCell id="R6RrCSv3wf-1cfHW28T0-106" style="rounded=0;orthogonalLoop=1;jettySize=auto;html=1;exitX=0;exitY=0.3333333333333333;exitDx=0;exitDy=0;exitPerimeter=0;entryX=1;entryY=0.5;entryDx=0;entryDy=0;" edge="1" parent="1" source="R6RrCSv3wf-1cfHW28T0-4" target="R6RrCSv3wf-1cfHW28T0-25">
          <mxGeometry relative="1" as="geometry" />
        </mxCell>
        <mxCell id="R6RrCSv3wf-1cfHW28T0-107" style="rounded=0;orthogonalLoop=1;jettySize=auto;html=1;exitX=0;exitY=0.3333333333333333;exitDx=0;exitDy=0;exitPerimeter=0;entryX=1;entryY=0.5;entryDx=0;entryDy=0;" edge="1" parent="1" source="R6RrCSv3wf-1cfHW28T0-4" target="R6RrCSv3wf-1cfHW28T0-26">
          <mxGeometry relative="1" as="geometry" />
        </mxCell>
        <mxCell id="R6RrCSv3wf-1cfHW28T0-108" style="rounded=0;orthogonalLoop=1;jettySize=auto;html=1;exitX=0;exitY=0.3333333333333333;exitDx=0;exitDy=0;exitPerimeter=0;entryX=1;entryY=0.5;entryDx=0;entryDy=0;" edge="1" parent="1" source="R6RrCSv3wf-1cfHW28T0-4" target="R6RrCSv3wf-1cfHW28T0-27">
          <mxGeometry relative="1" as="geometry" />
        </mxCell>
        <mxCell id="R6RrCSv3wf-1cfHW28T0-109" style="rounded=0;orthogonalLoop=1;jettySize=auto;html=1;exitX=0;exitY=0.3333333333333333;exitDx=0;exitDy=0;exitPerimeter=0;entryX=1;entryY=0.5;entryDx=0;entryDy=0;" edge="1" parent="1" source="R6RrCSv3wf-1cfHW28T0-4" target="R6RrCSv3wf-1cfHW28T0-28">
          <mxGeometry relative="1" as="geometry" />
        </mxCell>
        <mxCell id="R6RrCSv3wf-1cfHW28T0-4" value="卖家" style="shape=umlActor;verticalLabelPosition=bottom;verticalAlign=top;html=1;outlineConnect=0;" vertex="1" parent="1">
          <mxGeometry x="906" y="120" width="30" height="60" as="geometry" />
        </mxCell>
        <mxCell id="R6RrCSv3wf-1cfHW28T0-84" style="rounded=0;orthogonalLoop=1;jettySize=auto;html=1;exitX=1;exitY=0.3333333333333333;exitDx=0;exitDy=0;exitPerimeter=0;entryX=0;entryY=0.5;entryDx=0;entryDy=0;" edge="1" parent="1" source="R6RrCSv3wf-1cfHW28T0-8" target="R6RrCSv3wf-1cfHW28T0-22">
          <mxGeometry relative="1" as="geometry" />
        </mxCell>
        <mxCell id="R6RrCSv3wf-1cfHW28T0-85" style="rounded=0;orthogonalLoop=1;jettySize=auto;html=1;exitX=1;exitY=0.3333333333333333;exitDx=0;exitDy=0;exitPerimeter=0;" edge="1" parent="1" source="R6RrCSv3wf-1cfHW28T0-8" target="R6RrCSv3wf-1cfHW28T0-23">
          <mxGeometry relative="1" as="geometry" />
        </mxCell>
        <mxCell id="R6RrCSv3wf-1cfHW28T0-8" value="电商运营人员" style="shape=umlActor;verticalLabelPosition=bottom;verticalAlign=top;html=1;outlineConnect=0;" vertex="1" parent="1">
          <mxGeometry x="90" y="710" width="30" height="60" as="geometry" />
        </mxCell>
        <mxCell id="R6RrCSv3wf-1cfHW28T0-35" style="rounded=0;orthogonalLoop=1;jettySize=auto;html=1;entryX=0;entryY=0.5;entryDx=0;entryDy=0;exitX=1;exitY=0.5;exitDx=0;exitDy=0;" edge="1" parent="1" source="R6RrCSv3wf-1cfHW28T0-9" target="R6RrCSv3wf-1cfHW28T0-32">
          <mxGeometry relative="1" as="geometry" />
        </mxCell>
        <mxCell id="R6RrCSv3wf-1cfHW28T0-9" value="商品模块" style="rounded=1;whiteSpace=wrap;html=1;" vertex="1" parent="1">
          <mxGeometry x="190" y="20" width="110" height="40" as="geometry" />
        </mxCell>
        <mxCell id="R6RrCSv3wf-1cfHW28T0-43" style="rounded=0;orthogonalLoop=1;jettySize=auto;html=1;exitX=1;exitY=0.5;exitDx=0;exitDy=0;entryX=0;entryY=0.5;entryDx=0;entryDy=0;" edge="1" parent="1" source="R6RrCSv3wf-1cfHW28T0-10" target="R6RrCSv3wf-1cfHW28T0-37">
          <mxGeometry relative="1" as="geometry">
            <mxPoint x="340" y="180" as="targetPoint" />
          </mxGeometry>
        </mxCell>
        <mxCell id="R6RrCSv3wf-1cfHW28T0-10" value="订单模块" style="rounded=1;whiteSpace=wrap;html=1;" vertex="1" parent="1">
          <mxGeometry x="190" y="140" width="110" height="40" as="geometry" />
        </mxCell>
        <mxCell id="R6RrCSv3wf-1cfHW28T0-50" style="rounded=0;orthogonalLoop=1;jettySize=auto;html=1;exitX=1;exitY=0.5;exitDx=0;exitDy=0;entryX=0;entryY=0.5;entryDx=0;entryDy=0;" edge="1" parent="1" source="R6RrCSv3wf-1cfHW28T0-11" target="R6RrCSv3wf-1cfHW28T0-45">
          <mxGeometry relative="1" as="geometry" />
        </mxCell>
        <mxCell id="R6RrCSv3wf-1cfHW28T0-11" value="个人中心模块" style="rounded=1;whiteSpace=wrap;html=1;" vertex="1" parent="1">
          <mxGeometry x="190" y="220" width="110" height="40" as="geometry" />
        </mxCell>
        <mxCell id="R6RrCSv3wf-1cfHW28T0-66" style="rounded=0;orthogonalLoop=1;jettySize=auto;html=1;exitX=1;exitY=0.5;exitDx=0;exitDy=0;entryX=0;entryY=0.5;entryDx=0;entryDy=0;" edge="1" parent="1" source="R6RrCSv3wf-1cfHW28T0-12" target="R6RrCSv3wf-1cfHW28T0-52">
          <mxGeometry relative="1" as="geometry" />
        </mxCell>
        <mxCell id="R6RrCSv3wf-1cfHW28T0-12" value="注册与登陆模块" style="rounded=1;whiteSpace=wrap;html=1;" vertex="1" parent="1">
          <mxGeometry x="190" y="300" width="110" height="40" as="geometry" />
        </mxCell>
        <mxCell id="R6RrCSv3wf-1cfHW28T0-67" style="rounded=0;orthogonalLoop=1;jettySize=auto;html=1;exitX=1;exitY=0.5;exitDx=0;exitDy=0;entryX=0;entryY=0.5;entryDx=0;entryDy=0;" edge="1" parent="1" source="R6RrCSv3wf-1cfHW28T0-13" target="R6RrCSv3wf-1cfHW28T0-56">
          <mxGeometry relative="1" as="geometry" />
        </mxCell>
        <mxCell id="R6RrCSv3wf-1cfHW28T0-13" value="购物车模块" style="rounded=1;whiteSpace=wrap;html=1;" vertex="1" parent="1">
          <mxGeometry x="190" y="370" width="110" height="40" as="geometry" />
        </mxCell>
        <mxCell id="R6RrCSv3wf-1cfHW28T0-81" style="rounded=0;orthogonalLoop=1;jettySize=auto;html=1;exitX=1;exitY=0.5;exitDx=0;exitDy=0;entryX=0;entryY=0.5;entryDx=0;entryDy=0;" edge="1" parent="1" source="R6RrCSv3wf-1cfHW28T0-22" target="R6RrCSv3wf-1cfHW28T0-69">
          <mxGeometry relative="1" as="geometry" />
        </mxCell>
        <mxCell id="R6RrCSv3wf-1cfHW28T0-22" value="商品模块" style="rounded=1;whiteSpace=wrap;html=1;" vertex="1" parent="1">
          <mxGeometry x="190" y="660" width="110" height="40" as="geometry" />
        </mxCell>
        <mxCell id="R6RrCSv3wf-1cfHW28T0-82" style="rounded=0;orthogonalLoop=1;jettySize=auto;html=1;entryX=0;entryY=0.5;entryDx=0;entryDy=0;" edge="1" parent="1" source="R6RrCSv3wf-1cfHW28T0-23" target="R6RrCSv3wf-1cfHW28T0-74">
          <mxGeometry relative="1" as="geometry" />
        </mxCell>
        <mxCell id="R6RrCSv3wf-1cfHW28T0-23" value="订单模块" style="rounded=1;whiteSpace=wrap;html=1;" vertex="1" parent="1">
          <mxGeometry x="190" y="740" width="110" height="40" as="geometry" />
        </mxCell>
        <mxCell id="R6RrCSv3wf-1cfHW28T0-111" style="rounded=0;orthogonalLoop=1;jettySize=auto;html=1;exitX=0;exitY=0.5;exitDx=0;exitDy=0;entryX=1;entryY=0.5;entryDx=0;entryDy=0;" edge="1" parent="1" source="R6RrCSv3wf-1cfHW28T0-25" target="R6RrCSv3wf-1cfHW28T0-87">
          <mxGeometry relative="1" as="geometry" />
        </mxCell>
        <mxCell id="R6RrCSv3wf-1cfHW28T0-25" value="商品模块" style="rounded=1;whiteSpace=wrap;html=1;" vertex="1" parent="1">
          <mxGeometry x="740" y="40" width="110" height="40" as="geometry" />
        </mxCell>
        <mxCell id="R6RrCSv3wf-1cfHW28T0-112" style="rounded=0;orthogonalLoop=1;jettySize=auto;html=1;exitX=0;exitY=0.5;exitDx=0;exitDy=0;entryX=1;entryY=0.5;entryDx=0;entryDy=0;" edge="1" parent="1" source="R6RrCSv3wf-1cfHW28T0-26" target="R6RrCSv3wf-1cfHW28T0-92">
          <mxGeometry relative="1" as="geometry" />
        </mxCell>
        <mxCell id="R6RrCSv3wf-1cfHW28T0-26" value="订单模块" style="rounded=1;whiteSpace=wrap;html=1;" vertex="1" parent="1">
          <mxGeometry x="740" y="120" width="110" height="40" as="geometry" />
        </mxCell>
        <mxCell id="R6RrCSv3wf-1cfHW28T0-113" style="rounded=0;orthogonalLoop=1;jettySize=auto;html=1;exitX=0;exitY=0.5;exitDx=0;exitDy=0;entryX=1;entryY=0.5;entryDx=0;entryDy=0;" edge="1" parent="1" source="R6RrCSv3wf-1cfHW28T0-27" target="R6RrCSv3wf-1cfHW28T0-99">
          <mxGeometry relative="1" as="geometry" />
        </mxCell>
        <mxCell id="R6RrCSv3wf-1cfHW28T0-27" value="个人中心模块" style="rounded=1;whiteSpace=wrap;html=1;" vertex="1" parent="1">
          <mxGeometry x="740" y="210" width="110" height="40" as="geometry" />
        </mxCell>
        <mxCell id="R6RrCSv3wf-1cfHW28T0-114" style="rounded=0;orthogonalLoop=1;jettySize=auto;html=1;exitX=0;exitY=0.5;exitDx=0;exitDy=0;entryX=1;entryY=0.5;entryDx=0;entryDy=0;" edge="1" parent="1" source="R6RrCSv3wf-1cfHW28T0-28" target="R6RrCSv3wf-1cfHW28T0-103">
          <mxGeometry relative="1" as="geometry" />
        </mxCell>
        <mxCell id="R6RrCSv3wf-1cfHW28T0-28" value="注册与登陆模块" style="rounded=1;whiteSpace=wrap;html=1;" vertex="1" parent="1">
          <mxGeometry x="740" y="290" width="110" height="40" as="geometry" />
        </mxCell>
        <mxCell id="R6RrCSv3wf-1cfHW28T0-34" value="" style="group" vertex="1" connectable="0" parent="1">
          <mxGeometry x="340" y="-190" width="130" height="150" as="geometry" />
        </mxCell>
        <mxCell id="R6RrCSv3wf-1cfHW28T0-32" value="" style="rounded=0;whiteSpace=wrap;html=1;" vertex="1" parent="R6RrCSv3wf-1cfHW28T0-34">
          <mxGeometry width="130" height="150" as="geometry" />
        </mxCell>
        <mxCell id="R6RrCSv3wf-1cfHW28T0-29" value="商品查询" style="ellipse;whiteSpace=wrap;html=1;" vertex="1" parent="R6RrCSv3wf-1cfHW28T0-34">
          <mxGeometry x="21.666666666666668" y="13.235294117647058" width="83.77777777777777" height="35.294117647058826" as="geometry" />
        </mxCell>
        <mxCell id="R6RrCSv3wf-1cfHW28T0-30" value="商品浏览" style="ellipse;whiteSpace=wrap;html=1;" vertex="1" parent="R6RrCSv3wf-1cfHW28T0-34">
          <mxGeometry x="21.666666666666668" y="57.35294117647059" width="83.77777777777777" height="35.294117647058826" as="geometry" />
        </mxCell>
        <mxCell id="R6RrCSv3wf-1cfHW28T0-31" value="商品下单" style="ellipse;whiteSpace=wrap;html=1;" vertex="1" parent="R6RrCSv3wf-1cfHW28T0-34">
          <mxGeometry x="21.666666666666668" y="101.47058823529412" width="83.77777777777777" height="35.294117647058826" as="geometry" />
        </mxCell>
        <mxCell id="R6RrCSv3wf-1cfHW28T0-42" value="" style="group" vertex="1" connectable="0" parent="1">
          <mxGeometry x="340" y="10" width="130" height="150" as="geometry" />
        </mxCell>
        <mxCell id="R6RrCSv3wf-1cfHW28T0-37" value="" style="rounded=0;whiteSpace=wrap;html=1;" vertex="1" parent="R6RrCSv3wf-1cfHW28T0-42">
          <mxGeometry width="130" height="150" as="geometry" />
        </mxCell>
        <mxCell id="R6RrCSv3wf-1cfHW28T0-38" value="订单支付" style="ellipse;whiteSpace=wrap;html=1;" vertex="1" parent="R6RrCSv3wf-1cfHW28T0-42">
          <mxGeometry x="21.666666666666654" y="10.227272727272727" width="83.77777777777777" height="27.272727272727273" as="geometry" />
        </mxCell>
        <mxCell id="R6RrCSv3wf-1cfHW28T0-39" value="物流查询" style="ellipse;whiteSpace=wrap;html=1;" vertex="1" parent="R6RrCSv3wf-1cfHW28T0-42">
          <mxGeometry x="21.666666666666654" y="44.31818181818181" width="83.77777777777777" height="27.272727272727273" as="geometry" />
        </mxCell>
        <mxCell id="R6RrCSv3wf-1cfHW28T0-40" value="订单签收" style="ellipse;whiteSpace=wrap;html=1;" vertex="1" parent="R6RrCSv3wf-1cfHW28T0-42">
          <mxGeometry x="21.666666666666654" y="78.4090909090909" width="83.77777777777777" height="27.272727272727273" as="geometry" />
        </mxCell>
        <mxCell id="R6RrCSv3wf-1cfHW28T0-41" value="订单退换" style="ellipse;whiteSpace=wrap;html=1;" vertex="1" parent="R6RrCSv3wf-1cfHW28T0-42">
          <mxGeometry x="21.666666666666654" y="115.90909090909089" width="83.77777777777777" height="27.272727272727273" as="geometry" />
        </mxCell>
        <mxCell id="R6RrCSv3wf-1cfHW28T0-49" value="" style="group" vertex="1" connectable="0" parent="1">
          <mxGeometry x="340" y="180" width="130" height="100" as="geometry" />
        </mxCell>
        <mxCell id="R6RrCSv3wf-1cfHW28T0-45" value="" style="rounded=0;whiteSpace=wrap;html=1;" vertex="1" parent="R6RrCSv3wf-1cfHW28T0-49">
          <mxGeometry width="130" height="100" as="geometry" />
        </mxCell>
        <mxCell id="R6RrCSv3wf-1cfHW28T0-46" value="个人信息查询" style="ellipse;whiteSpace=wrap;html=1;" vertex="1" parent="R6RrCSv3wf-1cfHW28T0-49">
          <mxGeometry x="21.666666666666686" y="13.235294117647072" width="83.77777777777777" height="35.294117647058826" as="geometry" />
        </mxCell>
        <mxCell id="R6RrCSv3wf-1cfHW28T0-47" value="个人信息修改" style="ellipse;whiteSpace=wrap;html=1;" vertex="1" parent="R6RrCSv3wf-1cfHW28T0-49">
          <mxGeometry x="21.666666666666686" y="57.35294117647058" width="83.77777777777777" height="35.294117647058826" as="geometry" />
        </mxCell>
        <mxCell id="R6RrCSv3wf-1cfHW28T0-51" value="" style="group" vertex="1" connectable="0" parent="1">
          <mxGeometry x="340" y="290" width="130" height="100" as="geometry" />
        </mxCell>
        <mxCell id="R6RrCSv3wf-1cfHW28T0-52" value="" style="rounded=0;whiteSpace=wrap;html=1;" vertex="1" parent="R6RrCSv3wf-1cfHW28T0-51">
          <mxGeometry width="130" height="100" as="geometry" />
        </mxCell>
        <mxCell id="R6RrCSv3wf-1cfHW28T0-53" value="账号注册" style="ellipse;whiteSpace=wrap;html=1;" vertex="1" parent="R6RrCSv3wf-1cfHW28T0-51">
          <mxGeometry x="21.666666666666686" y="13.235294117647072" width="83.77777777777777" height="35.294117647058826" as="geometry" />
        </mxCell>
        <mxCell id="R6RrCSv3wf-1cfHW28T0-54" value="账号登陆" style="ellipse;whiteSpace=wrap;html=1;" vertex="1" parent="R6RrCSv3wf-1cfHW28T0-51">
          <mxGeometry x="21.666666666666686" y="57.35294117647058" width="83.77777777777777" height="35.294117647058826" as="geometry" />
        </mxCell>
        <mxCell id="R6RrCSv3wf-1cfHW28T0-64" value="" style="group" vertex="1" connectable="0" parent="1">
          <mxGeometry x="340" y="410" width="130" height="140" as="geometry" />
        </mxCell>
        <mxCell id="R6RrCSv3wf-1cfHW28T0-56" value="" style="rounded=0;whiteSpace=wrap;html=1;container=0;" vertex="1" parent="R6RrCSv3wf-1cfHW28T0-64">
          <mxGeometry width="130" height="140" as="geometry" />
        </mxCell>
        <mxCell id="R6RrCSv3wf-1cfHW28T0-57" value="购物车商品添加" style="ellipse;whiteSpace=wrap;html=1;container=0;" vertex="1" parent="R6RrCSv3wf-1cfHW28T0-64">
          <mxGeometry x="19.115333333333297" y="13.240000000000009" width="91.77466666666666" height="36.76" as="geometry" />
        </mxCell>
        <mxCell id="R6RrCSv3wf-1cfHW28T0-61" value="购物车商品删除" style="ellipse;whiteSpace=wrap;html=1;container=0;" vertex="1" parent="R6RrCSv3wf-1cfHW28T0-64">
          <mxGeometry x="19.115333333333297" y="53.24000000000001" width="91.77466666666666" height="36.76" as="geometry" />
        </mxCell>
        <mxCell id="R6RrCSv3wf-1cfHW28T0-62" value="购物车商品下单" style="ellipse;whiteSpace=wrap;html=1;container=0;" vertex="1" parent="R6RrCSv3wf-1cfHW28T0-64">
          <mxGeometry x="21.055333333333294" y="93.24000000000001" width="91.77466666666666" height="36.76" as="geometry" />
        </mxCell>
        <mxCell id="R6RrCSv3wf-1cfHW28T0-68" value="" style="group" vertex="1" connectable="0" parent="1">
          <mxGeometry x="340" y="570" width="130" height="150" as="geometry" />
        </mxCell>
        <mxCell id="R6RrCSv3wf-1cfHW28T0-69" value="" style="rounded=0;whiteSpace=wrap;html=1;" vertex="1" parent="R6RrCSv3wf-1cfHW28T0-68">
          <mxGeometry width="130" height="150" as="geometry" />
        </mxCell>
        <mxCell id="R6RrCSv3wf-1cfHW28T0-70" value="商品审核" style="ellipse;whiteSpace=wrap;html=1;" vertex="1" parent="R6RrCSv3wf-1cfHW28T0-68">
          <mxGeometry x="21.666666666666668" y="13.235294117647058" width="83.77777777777777" height="35.294117647058826" as="geometry" />
        </mxCell>
        <mxCell id="R6RrCSv3wf-1cfHW28T0-71" value="商品上架" style="ellipse;whiteSpace=wrap;html=1;" vertex="1" parent="R6RrCSv3wf-1cfHW28T0-68">
          <mxGeometry x="21.666666666666668" y="57.35294117647059" width="83.77777777777777" height="35.294117647058826" as="geometry" />
        </mxCell>
        <mxCell id="R6RrCSv3wf-1cfHW28T0-72" value="商品下架" style="ellipse;whiteSpace=wrap;html=1;" vertex="1" parent="R6RrCSv3wf-1cfHW28T0-68">
          <mxGeometry x="21.666666666666668" y="101.47058823529412" width="83.77777777777777" height="35.294117647058826" as="geometry" />
        </mxCell>
        <mxCell id="R6RrCSv3wf-1cfHW28T0-73" value="" style="group" vertex="1" connectable="0" parent="1">
          <mxGeometry x="340" y="740" width="130" height="100" as="geometry" />
        </mxCell>
        <mxCell id="R6RrCSv3wf-1cfHW28T0-74" value="" style="rounded=0;whiteSpace=wrap;html=1;" vertex="1" parent="R6RrCSv3wf-1cfHW28T0-73">
          <mxGeometry width="130" height="100" as="geometry" />
        </mxCell>
        <mxCell id="R6RrCSv3wf-1cfHW28T0-75" value="订单审核" style="ellipse;whiteSpace=wrap;html=1;" vertex="1" parent="R6RrCSv3wf-1cfHW28T0-73">
          <mxGeometry x="21.666666666666686" y="13.235294117647072" width="83.77777777777777" height="35.294117647058826" as="geometry" />
        </mxCell>
        <mxCell id="R6RrCSv3wf-1cfHW28T0-76" value="订单结算" style="ellipse;whiteSpace=wrap;html=1;" vertex="1" parent="R6RrCSv3wf-1cfHW28T0-73">
          <mxGeometry x="21.666666666666686" y="57.35294117647058" width="83.77777777777777" height="35.294117647058826" as="geometry" />
        </mxCell>
        <mxCell id="R6RrCSv3wf-1cfHW28T0-86" value="" style="group" vertex="1" connectable="0" parent="1">
          <mxGeometry x="540" y="-130" width="130" height="150" as="geometry" />
        </mxCell>
        <mxCell id="R6RrCSv3wf-1cfHW28T0-87" value="" style="rounded=0;whiteSpace=wrap;html=1;" vertex="1" parent="R6RrCSv3wf-1cfHW28T0-86">
          <mxGeometry width="130" height="150" as="geometry" />
        </mxCell>
        <mxCell id="R6RrCSv3wf-1cfHW28T0-88" value="商品修改" style="ellipse;whiteSpace=wrap;html=1;" vertex="1" parent="R6RrCSv3wf-1cfHW28T0-86">
          <mxGeometry x="21.666666666666668" y="13.235294117647058" width="83.77777777777777" height="35.294117647058826" as="geometry" />
        </mxCell>
        <mxCell id="R6RrCSv3wf-1cfHW28T0-89" value="商品上下架" style="ellipse;whiteSpace=wrap;html=1;" vertex="1" parent="R6RrCSv3wf-1cfHW28T0-86">
          <mxGeometry x="21.666666666666668" y="57.35294117647059" width="83.77777777777777" height="35.294117647058826" as="geometry" />
        </mxCell>
        <mxCell id="R6RrCSv3wf-1cfHW28T0-90" value="评论管理" style="ellipse;whiteSpace=wrap;html=1;" vertex="1" parent="R6RrCSv3wf-1cfHW28T0-86">
          <mxGeometry x="21.666666666666668" y="101.47058823529412" width="83.77777777777777" height="35.294117647058826" as="geometry" />
        </mxCell>
        <mxCell id="R6RrCSv3wf-1cfHW28T0-91" value="" style="group" vertex="1" connectable="0" parent="1">
          <mxGeometry x="540" y="50" width="130" height="150" as="geometry" />
        </mxCell>
        <mxCell id="R6RrCSv3wf-1cfHW28T0-92" value="" style="rounded=0;whiteSpace=wrap;html=1;" vertex="1" parent="R6RrCSv3wf-1cfHW28T0-91">
          <mxGeometry width="130" height="150" as="geometry" />
        </mxCell>
        <mxCell id="R6RrCSv3wf-1cfHW28T0-93" value="商品发货" style="ellipse;whiteSpace=wrap;html=1;" vertex="1" parent="R6RrCSv3wf-1cfHW28T0-91">
          <mxGeometry x="21.666666666666654" y="10.227272727272727" width="83.77777777777777" height="27.272727272727273" as="geometry" />
        </mxCell>
        <mxCell id="R6RrCSv3wf-1cfHW28T0-94" value="退换货管理" style="ellipse;whiteSpace=wrap;html=1;" vertex="1" parent="R6RrCSv3wf-1cfHW28T0-91">
          <mxGeometry x="21.666666666666654" y="44.31818181818181" width="83.77777777777777" height="27.272727272727273" as="geometry" />
        </mxCell>
        <mxCell id="R6RrCSv3wf-1cfHW28T0-95" value="订单结算" style="ellipse;whiteSpace=wrap;html=1;" vertex="1" parent="R6RrCSv3wf-1cfHW28T0-91">
          <mxGeometry x="21.666666666666654" y="78.4090909090909" width="83.77777777777777" height="27.272727272727273" as="geometry" />
        </mxCell>
        <mxCell id="R6RrCSv3wf-1cfHW28T0-96" value="订单查看" style="ellipse;whiteSpace=wrap;html=1;" vertex="1" parent="R6RrCSv3wf-1cfHW28T0-91">
          <mxGeometry x="21.666666666666654" y="115.90909090909089" width="83.77777777777777" height="27.272727272727273" as="geometry" />
        </mxCell>
        <mxCell id="R6RrCSv3wf-1cfHW28T0-98" value="" style="group" vertex="1" connectable="0" parent="1">
          <mxGeometry x="540" y="220" width="130" height="100" as="geometry" />
        </mxCell>
        <mxCell id="R6RrCSv3wf-1cfHW28T0-99" value="" style="rounded=0;whiteSpace=wrap;html=1;" vertex="1" parent="R6RrCSv3wf-1cfHW28T0-98">
          <mxGeometry width="130" height="100" as="geometry" />
        </mxCell>
        <mxCell id="R6RrCSv3wf-1cfHW28T0-100" value="个人信息查询" style="ellipse;whiteSpace=wrap;html=1;" vertex="1" parent="R6RrCSv3wf-1cfHW28T0-98">
          <mxGeometry x="21.666666666666686" y="13.235294117647072" width="83.77777777777777" height="35.294117647058826" as="geometry" />
        </mxCell>
        <mxCell id="R6RrCSv3wf-1cfHW28T0-101" value="个人信息修改" style="ellipse;whiteSpace=wrap;html=1;" vertex="1" parent="R6RrCSv3wf-1cfHW28T0-98">
          <mxGeometry x="21.666666666666686" y="57.35294117647058" width="83.77777777777777" height="35.294117647058826" as="geometry" />
        </mxCell>
        <mxCell id="R6RrCSv3wf-1cfHW28T0-102" value="" style="group" vertex="1" connectable="0" parent="1">
          <mxGeometry x="540" y="350" width="130" height="100" as="geometry" />
        </mxCell>
        <mxCell id="R6RrCSv3wf-1cfHW28T0-103" value="" style="rounded=0;whiteSpace=wrap;html=1;" vertex="1" parent="R6RrCSv3wf-1cfHW28T0-102">
          <mxGeometry width="130" height="100" as="geometry" />
        </mxCell>
        <mxCell id="R6RrCSv3wf-1cfHW28T0-104" value="账号注册" style="ellipse;whiteSpace=wrap;html=1;" vertex="1" parent="R6RrCSv3wf-1cfHW28T0-102">
          <mxGeometry x="21.666666666666686" y="13.235294117647072" width="83.77777777777777" height="35.294117647058826" as="geometry" />
        </mxCell>
        <mxCell id="R6RrCSv3wf-1cfHW28T0-105" value="账号登陆" style="ellipse;whiteSpace=wrap;html=1;" vertex="1" parent="R6RrCSv3wf-1cfHW28T0-102">
          <mxGeometry x="21.666666666666686" y="57.35294117647058" width="83.77777777777777" height="35.294117647058826" as="geometry" />
        </mxCell>
      </root>
    </mxGraphModel>
  </diagram>
</mxfile>
